<?xml version="1.0" encoding="UTF-8" standalone="no"?>
<!-- Generator: Adobe Illustrator 17.1.0, SVG Export Plug-In . SVG Version: 6.00 Build 0)  -->

<svg
   xmlns:dc="http://purl.org/dc/elements/1.1/"
   xmlns:cc="http://creativecommons.org/ns#"
   xmlns:rdf="http://www.w3.org/1999/02/22-rdf-syntax-ns#"
   xmlns:svg="http://www.w3.org/2000/svg"
   xmlns="http://www.w3.org/2000/svg"
   xmlns:sodipodi="http://sodipodi.sourceforge.net/DTD/sodipodi-0.dtd"
   xmlns:inkscape="http://www.inkscape.org/namespaces/inkscape"
   version="1.1"
   id="Capa_1"
   x="0px"
   y="0px"
   viewBox="0 0 100 100"
   style="enable-background:new 0 0 100 100;"
   xml:space="preserve"
   inkscape:version="0.48.4 r9939"
   width="100%"
   height="100%"
   sodipodi:docname="ruble_widget_icon.svg"
   inkscape:export-filename="/home/thewizardpp/projects/android/WizardBudget/resources/ruble_widget_icon.png"
   inkscape:export-xdpi="921.59998"
   inkscape:export-ydpi="921.59998"><metadata
     id="metadata11"><rdf:RDF><cc:Work
         rdf:about=""><dc:format>image/svg+xml</dc:format><dc:type
           rdf:resource="http://purl.org/dc/dcmitype/StillImage" /><dc:title></dc:title></cc:Work></rdf:RDF></metadata><defs
     id="defs9" /><sodipodi:namedview
     pagecolor="#ffffff"
     bordercolor="#666666"
     borderopacity="1"
     objecttolerance="10"
     gridtolerance="10"
     guidetolerance="10"
     inkscape:pageopacity="0"
     inkscape:pageshadow="2"
     inkscape:window-width="1152"
     inkscape:window-height="844"
     id="namedview7"
     showgrid="false"
     inkscape:zoom="2.36"
     inkscape:cx="50"
     inkscape:cy="50"
     inkscape:window-x="-2"
     inkscape:window-y="93"
     inkscape:window-maximized="1"
     inkscape:current-layer="Capa_1" /><g
     id="g3"><path
       d="M14.007,79.525h13.261v11.368c0,0.553,0.177,1.006,0.533,1.36c0.355,0.356,0.809,0.534,1.362,0.534h9.886   c0.513,0,0.957-0.178,1.332-0.534c0.375-0.354,0.562-0.807,0.562-1.36V79.525h29.896c0.552,0,1.006-0.176,1.362-0.532   s0.533-0.809,0.533-1.362v-7.578c0-0.55-0.177-1.006-0.533-1.36c-0.355-0.356-0.81-0.534-1.362-0.534H40.942v-6.986H61.07   c7.893,0,14.335-2.405,19.329-7.222c4.992-4.812,7.489-11.028,7.489-18.648c0-7.615-2.497-13.831-7.489-18.648   c-4.993-4.812-11.436-7.222-19.329-7.222H29.162c-0.553,0-1.006,0.178-1.362,0.532c-0.355,0.356-0.533,0.812-0.533,1.362v37.238   H14.007c-0.553,0-1.006,0.187-1.362,0.562c-0.355,0.375-0.533,0.819-0.533,1.332v8.82c0,0.553,0.177,1.006,0.533,1.362   s0.808,0.532,1.362,0.532h13.261v6.986H14.007c-0.553,0-1.006,0.178-1.362,0.534c-0.355,0.354-0.533,0.809-0.533,1.36v7.578   c0,0.553,0.177,1.006,0.533,1.362S13.454,79.525,14.007,79.525z M40.942,22.044h18.944c4.183,0,7.557,1.223,10.123,3.67   c2.565,2.447,3.848,5.645,3.848,9.59c0,3.947-1.283,7.146-3.848,9.59c-2.566,2.449-5.94,3.672-10.123,3.672H40.942V22.044z"
       id="path5" /></g></svg>