<?xml version="1.0" encoding="UTF-8" standalone="no"?>
<svg
   width="1125"
   height="1125"
   version="1.1"
   viewBox="0 0 843.75 843.75"
   id="svg1"
   sodipodi:docname="calendar_widget_icon.svg"
   inkscape:version="1.4.1-rc (06eac75fbf, 2025-03-29)"
   xmlns:inkscape="http://www.inkscape.org/namespaces/inkscape"
   xmlns:sodipodi="http://sodipodi.sourceforge.net/DTD/sodipodi-0.dtd"
   xmlns="http://www.w3.org/2000/svg"
   xmlns:svg="http://www.w3.org/2000/svg">
  <defs
     id="defs1" />
  <sodipodi:namedview
     id="namedview1"
     pagecolor="#ffffff"
     bordercolor="#000000"
     borderopacity="0.25"
     inkscape:showpageshadow="2"
     inkscape:pageopacity="0.0"
     inkscape:pagecheckerboard="0"
     inkscape:deskcolor="#d1d1d1"
     inkscape:document-units="pt"
     showgrid="false"
     inkscape:zoom="0.52625"
     inkscape:cx="563.42043"
     inkscape:cy="647.981"
     inkscape:window-width="1920"
     inkscape:window-height="1051"
     inkscape:window-x="0"
     inkscape:window-y="0"
     inkscape:window-maximized="1"
     inkscape:current-layer="svg1" />
  <path
     d="M 723.136,557.327 V 0.237 H 67.656 L 0,40.233 v 803.28 h 692.34 v -71.664 h 99.516 c 0,0.0117 -68.723,-55.164 -68.723,-214.52 z m -45.527,-120.32 h -118.52 v -126.84 h 118.52 z m -290.07,-273.18 v 126.84 h -132.53 v -126.84 z m 19.512,0 h 132.54 v 126.84 h -132.54 z m -293.86,0 h 122.3 v 126.84 h -122.3 z m 0,146.35 h 122.3 v 126.83 h -122.3 z m 0,146.34 h 122.3 v 100.84 c 0,9.0977 0.19141,17.746 0.53906,26.004 h -122.84 z m 141.81,100.84 v -100.84 h 132.53 v 100.84 c 0,9.0977 0.19141,17.746 0.53906,26.004 h -132.5 c -0.37109,-8.2188 -0.56641,-16.859 -0.56641,-26.004 z m 0,-120.35 v -126.84 h 132.53 v 126.84 z m 152.04,-126.83 h 132.54 v 126.83 h -132.54 z m 270.56,-19.523 h -118.52 v -126.83 h 118.52 z m -440.4,312.21 c 5.1484,64.488 21.059,101.87 36.926,123.47 h -127.23 c -3.0977,-2.7461 -8.2812,-8.5547 -13.715,-19.848 -8.1953,-17.039 -17.785,-48.539 -19.645,-103.62 z m 62.938,123.47 C 284.838,712.272 263.061,679.15 256.772,602.864 h 132.48 c 5.1484,64.488 21.07,101.87 36.926,123.47 z m 152.04,0 C 436.878,712.272 415.101,679.15 408.824,602.864 h 132.47 c 5.1484,64.488 21.07,101.87 36.926,123.47 z m -44.582,-142.98 c -0.34766,-8.2305 -0.5625,-16.859 -0.5625,-26.004 V 456.51 h 132.54 v 100.84 c 0,9.0977 0.19141,17.746 0.53906,26.004 z M 559.077,557.35 V 456.51 h 118.52 v 120.35 c 0,2.1953 0.0234,4.332 0.0469,6.4922 h -118.01 c -0.37109,-8.2188 -0.5625,-16.859 -0.5625,-26.004 z M 646.807,798 H 45.527 V 66.21 L 67.656,53.132 v 530.24 c 0,175.63 68.734,188.5 68.734,188.5 h 510.45 z m 45.527,-71.664 H 604.205 C 588.904,712.274 567.127,679.152 560.85,602.866 h 117.3 c 2.0625,47.988 9.9492,89.316 23.594,123.47 z"
     fill="#010101"
     id="path1"
     style="fill:#777777;fill-opacity:1" />
</svg>
